<svg version="1.1" id="Layer_1" xmlns="http://www.w3.org/2000/svg" xmlns:xlink="http://www.w3.org/1999/xlink" x="0px" y="0px"
	 width="100%" viewBox="0 0 200 103" enable-background="new 0 0 200 103" xml:space="preserve">
<path fill="#000000" opacity="1.000000" stroke="none" 
	d="
M131.000000,104.000000 
	C87.666634,104.000000 44.333260,104.000000 1.000000,104.000000 
	C1.000000,96.897125 1.000000,89.917343 1.466361,82.443359 
	C6.957059,81.913521 11.981396,81.877884 17.179956,81.738464 
	C17.572046,81.465538 17.740213,81.256401 17.865105,80.538284 
	C17.872961,71.919731 17.772528,63.768517 17.906454,55.621155 
	C18.024206,48.457924 21.524233,43.723892 28.402246,43.386738 
	C34.656147,43.080177 35.483612,40.033337 34.996773,35.109695 
	C34.866505,33.792221 35.014439,32.449654 34.973801,31.120470 
	C34.823280,26.197264 33.571213,25.132784 28.768394,26.783350 
	C25.259035,27.989395 22.007578,29.945883 18.321943,31.721657 
	C18.418833,27.166769 15.489800,26.799807 11.975492,26.959707 
	C8.323943,27.125851 4.659055,26.998823 1.000000,27.000000 
	C1.000000,18.364273 1.000000,9.728547 1.000000,1.000000 
	C33.020840,1.000000 65.041763,1.000000 97.565323,1.467655 
	C98.047302,26.677916 98.092239,51.420918 97.942337,76.162735 
	C97.916939,80.354820 99.130913,82.404846 103.603638,82.038872 
	C107.071182,81.755142 110.570580,81.860641 114.209183,81.703995 
	C114.553917,81.467003 114.697945,81.282227 114.819321,80.588715 
	C114.895988,53.744595 114.947990,27.372297 115.000000,1.000000 
	C143.579910,1.000000 172.159821,1.000000 201.000000,1.000000 
	C201.000000,20.353451 201.000000,39.708065 200.673004,59.796898 
	C195.674377,57.046684 191.074234,57.173561 186.718536,61.241119 
	C183.441040,56.998493 179.601608,56.864693 176.134445,59.687340 
	C173.360748,61.945423 172.672485,65.815407 175.053284,68.541176 
	C178.190033,72.132393 182.232971,74.932106 186.064880,78.365982 
	C190.149811,81.899109 191.142410,77.903557 193.178192,75.847946 
	C193.667297,75.543800 193.864502,75.289940 194.242767,74.922127 
	C194.659225,74.573090 194.821487,74.281204 195.271362,73.840332 
	C197.041046,72.137276 198.523132,70.583191 200.254135,69.029961 
	C200.503067,69.030807 201.000000,69.000000 201.000000,69.000000 
	C201.000000,80.612679 201.000000,92.225349 201.000000,104.000000 
	C181.312698,104.000000 161.625015,104.000000 141.717865,103.776237 
	C143.927109,100.252296 146.798523,97.187439 148.701355,93.607712 
	C154.360916,82.960602 159.423630,71.994957 165.131027,61.374916 
	C170.303497,51.750271 176.043335,42.431442 181.463684,32.938194 
	C182.324951,31.429762 182.821243,29.712938 183.935883,26.996969 
	C180.377090,26.996969 177.751465,27.301889 175.222092,26.937906 
	C168.520752,25.973564 164.426910,28.305998 161.926224,34.899532 
	C159.567032,41.120029 155.975952,46.873322 152.442917,53.777699 
	C149.442642,47.889042 146.937500,43.049198 144.501160,38.174976 
	C138.699203,26.567394 138.712326,26.560892 125.867897,27.013931 
	C125.701645,27.019796 125.534859,27.023218 125.368690,27.017363 
	C121.370171,26.876461 120.753662,28.590191 122.507721,31.920084 
	C128.391739,43.090252 133.837906,54.511841 140.200424,65.399651 
	C143.033203,70.247238 142.524490,73.812958 139.897629,78.180573 
	C136.310654,84.144516 133.267578,90.432892 129.811447,96.479370 
	C128.108124,99.459320 128.262527,101.861511 131.000000,104.000000 
M88.518799,40.164482 
	C82.624146,29.021570 74.315918,24.579798 61.370296,26.149778 
	C43.888161,28.269926 32.292515,45.965050 38.444981,63.973106 
	C44.663403,82.174225 68.245064,87.274246 84.201599,79.121445 
	C85.348763,78.535309 86.625725,76.994934 86.730309,75.800850 
	C87.057098,72.069672 86.850273,68.291756 86.850273,64.378296 
	C65.600914,70.327606 58.136856,69.292694 53.905907,59.615261 
	C56.126110,59.399578 58.212124,59.029800 60.299244,59.023460 
	C68.789810,58.997654 77.286560,58.913948 85.768723,59.207333 
	C89.393936,59.332718 91.367271,58.272030 90.939613,54.550426 
	C90.412964,49.967388 89.565887,45.421162 88.518799,40.164482 
z"/>
<path fill="#2A2A2E" opacity="1.000000" stroke="none" 
	d="
M131.333328,104.000000 
	C128.262527,101.861511 128.108124,99.459320 129.811447,96.479370 
	C133.267578,90.432892 136.310654,84.144516 139.897629,78.180573 
	C142.524490,73.812958 143.033203,70.247238 140.200424,65.399651 
	C133.837906,54.511841 128.391739,43.090252 122.507721,31.920084 
	C120.753662,28.590191 121.370171,26.876461 125.368690,27.017363 
	C125.534859,27.023218 125.701645,27.019796 125.867897,27.013931 
	C138.712326,26.560892 138.699203,26.567394 144.501160,38.174976 
	C146.937500,43.049198 149.442642,47.889042 152.442917,53.777699 
	C155.975952,46.873322 159.567032,41.120029 161.926224,34.899532 
	C164.426910,28.305998 168.520752,25.973564 175.222092,26.937906 
	C177.751465,27.301889 180.377090,26.996969 183.935883,26.996969 
	C182.821243,29.712938 182.324951,31.429762 181.463684,32.938194 
	C176.043335,42.431442 170.303497,51.750271 165.131027,61.374916 
	C159.423630,71.994957 154.360916,82.960602 148.701355,93.607712 
	C146.798523,97.187439 143.927109,100.252296 141.249207,103.776237 
	C138.958328,104.000000 136.916672,104.000000 134.441650,103.816360 
	C133.672195,103.755150 133.336090,103.877571 133.000000,104.000000 
	C132.555557,104.000000 132.111099,104.000000 131.333328,104.000000 
z"/>
<path fill="#2B2A2E" opacity="1.000000" stroke="none" 
	d="
M114.532394,1.000000 
	C114.947990,27.372297 114.895988,53.744595 114.691193,80.704636 
	C114.369896,81.451927 114.209030,81.618843 114.055817,81.793121 
	C110.570580,81.860641 107.071182,81.755142 103.603638,82.038872 
	C99.130913,82.404846 97.916939,80.354820 97.942337,76.162735 
	C98.092239,51.420918 98.047302,26.677916 98.033981,1.467655 
	C103.354927,1.000000 108.709862,1.000000 114.532394,1.000000 
z"/>
<path fill="#2B2A2E" opacity="1.000000" stroke="none" 
	d="
M17.005733,81.842239 
	C11.981396,81.877884 6.957059,81.913521 1.466361,81.974579 
	C1.000000,63.979103 1.000000,45.958210 1.000000,27.468658 
	C4.659055,26.998823 8.323943,27.125851 11.975492,26.959707 
	C15.489800,26.799807 18.418833,27.166769 18.321943,31.721657 
	C22.007578,29.945883 25.259035,27.989395 28.768394,26.783350 
	C33.571213,25.132784 34.823280,26.197264 34.973801,31.120470 
	C35.014439,32.449654 34.866505,33.792221 34.996773,35.109695 
	C35.483612,40.033337 34.656147,43.080177 28.402246,43.386738 
	C21.524233,43.723892 18.024206,48.457924 17.906454,55.621155 
	C17.772528,63.768517 17.872961,71.919731 17.717827,80.671532 
	C17.370375,81.455788 17.184242,81.645271 17.005733,81.842239 
z"/>
<path fill="#4E6EBA" opacity="1.000000" stroke="none" 
	d="
M200.005203,69.029114 
	C198.523132,70.583191 197.041046,72.137276 195.060425,73.955376 
	C194.301758,74.420601 194.110657,74.673897 193.988586,74.979279 
	C193.864502,75.289940 193.667297,75.543800 192.811615,75.891403 
	C190.112930,76.718666 187.999603,77.395393 185.886292,78.072128 
	C182.232971,74.932106 178.190033,72.132393 175.053284,68.541176 
	C172.672485,65.815407 173.360748,61.945423 176.134445,59.687340 
	C179.601608,56.864693 183.441040,56.998493 186.718536,61.241119 
	C191.074234,57.173561 195.674377,57.046684 200.673004,60.265556 
	C201.000000,62.370556 201.000000,64.741112 200.796417,67.688232 
	C200.333771,68.470978 200.137894,68.725746 200.005203,69.029114 
z"/>
<path fill="#000000" opacity="1.000000" stroke="none" 
	d="
M133.250000,104.000000 
	C133.336090,103.877571 133.672195,103.755150 134.004150,103.816360 
	C134.000000,104.000000 133.500000,104.000000 133.250000,104.000000 
z"/>
<path fill="#435A89" opacity="1.000000" stroke="none" 
	d="
M200.254135,69.029953 
	C200.137894,68.725746 200.333771,68.470978 200.796417,68.132401 
	C201.000000,68.000000 201.000000,68.500000 201.000000,68.750000 
	C201.000000,69.000000 200.503067,69.030807 200.254135,69.029953 
z"/>
<path fill="#2A2A2E" opacity="1.000000" stroke="none" 
	d="
M88.688049,40.511757 
	C89.565887,45.421162 90.412964,49.967388 90.939613,54.550426 
	C91.367271,58.272030 89.393936,59.332718 85.768723,59.207333 
	C77.286560,58.913948 68.789810,58.997654 60.299244,59.023460 
	C58.212124,59.029800 56.126110,59.399578 53.905907,59.615261 
	C58.136856,69.292694 65.600914,70.327606 86.850273,64.378296 
	C86.850273,68.291756 87.057098,72.069672 86.730309,75.800850 
	C86.625725,76.994934 85.348763,78.535309 84.201599,79.121445 
	C68.245064,87.274246 44.663403,82.174225 38.444981,63.973106 
	C32.292515,45.965050 43.888161,28.269926 61.370296,26.149778 
	C74.315918,24.579798 82.624146,29.021570 88.688049,40.511757 
M54.902161,46.059372 
	C55.176682,46.590130 55.444580,47.580040 55.726688,47.584114 
	C61.872807,47.672718 68.020508,47.651642 74.440804,47.651642 
	C73.635124,42.805302 70.963570,40.814026 67.332863,40.169895 
	C62.229530,39.264500 57.763214,40.301270 54.902161,46.059372 
z"/>
<path fill="#435A89" opacity="1.000000" stroke="none" 
	d="
M186.064880,78.365982 
	C187.999603,77.395393 190.112930,76.718666 192.592834,75.998489 
	C191.142410,77.903557 190.149811,81.899109 186.064880,78.365982 
z"/>
<path fill="#435A89" opacity="1.000000" stroke="none" 
	d="
M194.242767,74.922127 
	C194.110657,74.673897 194.301758,74.420601 194.772827,74.104355 
	C194.821487,74.281204 194.659225,74.573090 194.242767,74.922127 
z"/>
<path fill="#1E1D20" opacity="1.000000" stroke="none" 
	d="
M17.179956,81.738464 
	C17.184242,81.645271 17.370375,81.455788 17.711407,81.140541 
	C17.740213,81.256401 17.572046,81.465538 17.179956,81.738464 
z"/>
<path fill="#232323" opacity="1.000000" stroke="none" 
	d="
M114.209183,81.703995 
	C114.209030,81.618843 114.369896,81.451927 114.666519,81.176460 
	C114.697945,81.282227 114.553917,81.467003 114.209183,81.703995 
z"/>
<path fill="#000000" opacity="1.000000" stroke="none" 
	d="
M55.033554,45.741177 
	C57.763214,40.301270 62.229530,39.264500 67.332863,40.169895 
	C70.963570,40.814026 73.635124,42.805302 74.440804,47.651642 
	C68.020508,47.651642 61.872807,47.672718 55.726688,47.584114 
	C55.444580,47.580040 55.176682,46.590130 55.033554,45.741177 
z"/>
</svg>