<svg xmlns="http://www.w3.org/2000/svg" fill="none" viewBox="1172.9085173501578 392.22400000000005 199.09148264984228 178.808" style="max-height: 500px" width="199.09148264984228" height="178.808">
<path fill="#2A2A2F" d="M854.092 720.851L975.874 497.907L813 182.07H939.265L1037.14 380.49L1135.01 182.07H1259.78L975.127 720.851H854.092Z"/>
<path fill="#2A2A2F" d="M666 0H782.552V564.791H666V0Z"/>
<path fill="#2A2A2F" d="M249.674 374.542C249.674 258.611 343.065 173.149 446.916 173.149C581.399 173.149 640.422 277.19 629.962 404.268H358.754C371.456 452.572 416.283 478.582 479.042 478.582C520.881 478.582 568.697 464.463 600.824 441.425V540.264C561.973 564.044 509.674 573.705 464.099 573.705C343.065 573.705 249.674 490.473 249.674 374.542ZM445.421 265.3C405.824 265.3 374.444 289.823 361.743 330.696H522.375C518.64 299.484 493.237 265.3 445.421 265.3Z"/>
<path fill="#2A2A2F" d="M236.092 175.375V292.049C166.61 283.131 117.299 309.885 117.299 384.942V564.784H0V182.063H117.299V235.57C139.713 200.642 181.552 173.146 236.092 175.375Z"/>
<path fill="#4061AD" d="M1353.18 412.067C1348.49 407.392 1342.91 403.683 1336.77 401.153C1330.64 398.623 1324.06 397.32 1317.42 397.32C1310.77 397.32 1304.2 398.623 1298.06 401.153C1291.92 403.683 1286.35 407.392 1281.65 412.067L1271.9 421.764L1262.16 412.067C1252.67 402.628 1239.81 397.325 1226.39 397.325C1212.98 397.325 1200.11 402.628 1190.63 412.067C1181.14 421.505 1175.81 434.307 1175.81 447.656C1175.81 461.004 1181.14 473.806 1190.63 483.245L1200.37 492.943L1271.9 564.121L1343.44 492.943L1353.18 483.245C1357.88 478.572 1361.61 473.024 1364.15 466.917C1366.69 460.811 1368 454.266 1368 447.656C1368 441.046 1366.69 434.501 1364.15 428.394C1361.61 422.288 1357.88 416.74 1353.18 412.067Z"/>
</svg>